<svg aria-roledescription="er" role="graphics-document document" viewBox="0 0 452.1875 606" style="max-width: 452.1875px;" xmlns:xlink="http://www.w3.org/1999/xlink" xmlns="http://www.w3.org/2000/svg" width="100%" id="mermaid-69bafb07-3ea4-46cd-ad7d-c94ffa1eda68"><style>#mermaid-69bafb07-3ea4-46cd-ad7d-c94ffa1eda68{font-family:"trebuchet ms",verdana,arial,sans-serif;font-size:16px;fill:#333;}#mermaid-69bafb07-3ea4-46cd-ad7d-c94ffa1eda68 .error-icon{fill:#552222;}#mermaid-69bafb07-3ea4-46cd-ad7d-c94ffa1eda68 .error-text{fill:#552222;stroke:#552222;}#mermaid-69bafb07-3ea4-46cd-ad7d-c94ffa1eda68 .edge-thickness-normal{stroke-width:1px;}#mermaid-69bafb07-3ea4-46cd-ad7d-c94ffa1eda68 .edge-thickness-thick{stroke-width:3.5px;}#mermaid-69bafb07-3ea4-46cd-ad7d-c94ffa1eda68 .edge-pattern-solid{stroke-dasharray:0;}#mermaid-69bafb07-3ea4-46cd-ad7d-c94ffa1eda68 .edge-thickness-invisible{stroke-width:0;fill:none;}#mermaid-69bafb07-3ea4-46cd-ad7d-c94ffa1eda68 .edge-pattern-dashed{stroke-dasharray:3;}#mermaid-69bafb07-3ea4-46cd-ad7d-c94ffa1eda68 .edge-pattern-dotted{stroke-dasharray:2;}#mermaid-69bafb07-3ea4-46cd-ad7d-c94ffa1eda68 .marker{fill:#333333;stroke:#333333;}#mermaid-69bafb07-3ea4-46cd-ad7d-c94ffa1eda68 .marker.cross{stroke:#333333;}#mermaid-69bafb07-3ea4-46cd-ad7d-c94ffa1eda68 svg{font-family:"trebuchet ms",verdana,arial,sans-serif;font-size:16px;}#mermaid-69bafb07-3ea4-46cd-ad7d-c94ffa1eda68 p{margin:0;}#mermaid-69bafb07-3ea4-46cd-ad7d-c94ffa1eda68 .entityBox{fill:#ECECFF;stroke:#9370DB;}#mermaid-69bafb07-3ea4-46cd-ad7d-c94ffa1eda68 .attributeBoxOdd{fill:#ffffff;stroke:#9370DB;}#mermaid-69bafb07-3ea4-46cd-ad7d-c94ffa1eda68 .attributeBoxEven{fill:#f2f2f2;stroke:#9370DB;}#mermaid-69bafb07-3ea4-46cd-ad7d-c94ffa1eda68 .relationshipLabelBox{fill:hsl(80, 100%, 96.2745098039%);opacity:0.7;background-color:hsl(80, 100%, 96.2745098039%);}#mermaid-69bafb07-3ea4-46cd-ad7d-c94ffa1eda68 .relationshipLabelBox rect{opacity:0.5;}#mermaid-69bafb07-3ea4-46cd-ad7d-c94ffa1eda68 .relationshipLine{stroke:#333333;}#mermaid-69bafb07-3ea4-46cd-ad7d-c94ffa1eda68 .entityTitleText{text-anchor:middle;font-size:18px;fill:#333;}#mermaid-69bafb07-3ea4-46cd-ad7d-c94ffa1eda68 #MD_PARENT_START{fill:#f5f5f5!important;stroke:#333333!important;stroke-width:1;}#mermaid-69bafb07-3ea4-46cd-ad7d-c94ffa1eda68 #MD_PARENT_END{fill:#f5f5f5!important;stroke:#333333!important;stroke-width:1;}#mermaid-69bafb07-3ea4-46cd-ad7d-c94ffa1eda68 :root{--mermaid-font-family:"trebuchet ms",verdana,arial,sans-serif;}</style><g></g><defs><marker orient="auto" markerHeight="240" markerWidth="190" refY="7" refX="0" id="MD_PARENT_START"><path d="M 18,7 L9,13 L1,7 L9,1 Z"></path></marker></defs><defs><marker orient="auto" markerHeight="28" markerWidth="20" refY="7" refX="19" id="MD_PARENT_END"><path d="M 18,7 L9,13 L1,7 L9,1 Z"></path></marker></defs><defs><marker orient="auto" markerHeight="18" markerWidth="18" refY="9" refX="0" id="ONLY_ONE_START"><path d="M9,0 L9,18 M15,0 L15,18" fill="none" stroke="gray"></path></marker></defs><defs><marker orient="auto" markerHeight="18" markerWidth="18" refY="9" refX="18" id="ONLY_ONE_END"><path d="M3,0 L3,18 M9,0 L9,18" fill="none" stroke="gray"></path></marker></defs><defs><marker orient="auto" markerHeight="18" markerWidth="30" refY="9" refX="0" id="ZERO_OR_ONE_START"><circle r="6" cy="9" cx="21" fill="white" stroke="gray"></circle><path d="M9,0 L9,18" fill="none" stroke="gray"></path></marker></defs><defs><marker orient="auto" markerHeight="18" markerWidth="30" refY="9" refX="30" id="ZERO_OR_ONE_END"><circle r="6" cy="9" cx="9" fill="white" stroke="gray"></circle><path d="M21,0 L21,18" fill="none" stroke="gray"></path></marker></defs><defs><marker orient="auto" markerHeight="36" markerWidth="45" refY="18" refX="18" id="ONE_OR_MORE_START"><path d="M0,18 Q 18,0 36,18 Q 18,36 0,18 M42,9 L42,27" fill="none" stroke="gray"></path></marker></defs><defs><marker orient="auto" markerHeight="36" markerWidth="45" refY="18" refX="27" id="ONE_OR_MORE_END"><path d="M3,9 L3,27 M9,18 Q27,0 45,18 Q27,36 9,18" fill="none" stroke="gray"></path></marker></defs><defs><marker orient="auto" markerHeight="36" markerWidth="57" refY="18" refX="18" id="ZERO_OR_MORE_START"><circle r="6" cy="18" cx="48" fill="white" stroke="gray"></circle><path d="M0,18 Q18,0 36,18 Q18,36 0,18" fill="none" stroke="gray"></path></marker></defs><defs><marker orient="auto" markerHeight="36" markerWidth="57" refY="18" refX="39" id="ZERO_OR_MORE_END"><circle r="6" cy="18" cx="9" fill="white" stroke="gray"></circle><path d="M21,18 Q39,0 57,18 Q39,36 21,18" fill="none" stroke="gray"></path></marker></defs><path style="stroke: gray; fill: none;" marker-start="url(#ONLY_ONE_START)" marker-end="url(#ZERO_OR_MORE_END)" d="M152.402,231.063L144.325,241.219C136.247,251.375,120.092,271.688,112.015,290.177C103.938,308.667,103.938,325.333,103.938,333.667L103.938,342" class="er relationshipLine"></path><path style="stroke: gray; fill: none;" marker-start="url(#ONLY_ONE_START)" marker-end="url(#ZERO_OR_MORE_END)" d="M311.566,231.063L319.644,241.219C327.721,251.375,343.876,271.688,351.954,295.677C360.031,319.667,360.031,347.333,360.031,361.167L360.031,375" class="er relationshipLine"></path><g transform="translate(152.40234375,20 )" id="entity-users-33ae1e26-be31-5c1d-bf65-e859e9d0308e"><rect height="222" width="159.1640625" y="0" x="0" class="er entityBox"></rect><text style="dominant-baseline: middle; text-anchor: middle; font-size: 12px;" transform="translate(79.58203125,12)" y="0" x="0" id="text-entity-users-33ae1e26-be31-5c1d-bf65-e859e9d0308e" class="er entityLabel">users</text><rect height="22" width="58.671875" y="24" x="0" class="er attributeBoxOdd"></rect><text style="dominant-baseline: middle; font-size: 10.2px;" transform="translate(5,35)" y="0" x="0" id="text-entity-users-33ae1e26-be31-5c1d-bf65-e859e9d0308e-attr-1-type" class="er entityLabel">int</text><rect height="22" width="78" y="24" x="58.671875" class="er attributeBoxOdd"></rect><text style="dominant-baseline: middle; font-size: 10.2px;" transform="translate(63.671875,35)" y="0" x="0" id="text-entity-users-33ae1e26-be31-5c1d-bf65-e859e9d0308e-attr-1-name" class="er entityLabel">id</text><rect height="22" width="22.4921875" y="24" x="136.671875" class="er attributeBoxOdd"></rect><text style="dominant-baseline: middle; font-size: 10.2px;" transform="translate(141.671875,35)" y="0" x="0" id="text-entity-users-33ae1e26-be31-5c1d-bf65-e859e9d0308e-attr-1-key" class="er entityLabel">PK</text><rect height="22" width="58.671875" y="46" x="0" class="er attributeBoxEven"></rect><text style="dominant-baseline: middle; font-size: 10.2px;" transform="translate(5,57)" y="0" x="0" id="text-entity-users-33ae1e26-be31-5c1d-bf65-e859e9d0308e-attr-2-type" class="er entityLabel">varchar</text><rect height="22" width="78" y="46" x="58.671875" class="er attributeBoxEven"></rect><text style="dominant-baseline: middle; font-size: 10.2px;" transform="translate(63.671875,57)" y="0" x="0" id="text-entity-users-33ae1e26-be31-5c1d-bf65-e859e9d0308e-attr-2-name" class="er entityLabel">username</text><rect height="22" width="22.4921875" y="46" x="136.671875" class="er attributeBoxEven"></rect><text style="dominant-baseline: middle; font-size: 10.2px;" transform="translate(141.671875,57)" y="0" x="0" id="text-entity-users-33ae1e26-be31-5c1d-bf65-e859e9d0308e-attr-2-key" class="er entityLabel">UK</text><rect height="22" width="58.671875" y="68" x="0" class="er attributeBoxOdd"></rect><text style="dominant-baseline: middle; font-size: 10.2px;" transform="translate(5,79)" y="0" x="0" id="text-entity-users-33ae1e26-be31-5c1d-bf65-e859e9d0308e-attr-3-type" class="er entityLabel">varchar</text><rect height="22" width="78" y="68" x="58.671875" class="er attributeBoxOdd"></rect><text style="dominant-baseline: middle; font-size: 10.2px;" transform="translate(63.671875,79)" y="0" x="0" id="text-entity-users-33ae1e26-be31-5c1d-bf65-e859e9d0308e-attr-3-name" class="er entityLabel">email</text><rect height="22" width="22.4921875" y="68" x="136.671875" class="er attributeBoxOdd"></rect><text style="dominant-baseline: middle; font-size: 10.2px;" transform="translate(141.671875,79)" y="0" x="0" id="text-entity-users-33ae1e26-be31-5c1d-bf65-e859e9d0308e-attr-3-key" class="er entityLabel">UK</text><rect height="22" width="58.671875" y="90" x="0" class="er attributeBoxEven"></rect><text style="dominant-baseline: middle; font-size: 10.2px;" transform="translate(5,101)" y="0" x="0" id="text-entity-users-33ae1e26-be31-5c1d-bf65-e859e9d0308e-attr-4-type" class="er entityLabel">varchar</text><rect height="22" width="78" y="90" x="58.671875" class="er attributeBoxEven"></rect><text style="dominant-baseline: middle; font-size: 10.2px;" transform="translate(63.671875,101)" y="0" x="0" id="text-entity-users-33ae1e26-be31-5c1d-bf65-e859e9d0308e-attr-4-name" class="er entityLabel">password_hash</text><rect height="22" width="22.4921875" y="90" x="136.671875" class="er attributeBoxEven"></rect><text style="dominant-baseline: middle; font-size: 10.2px;" transform="translate(141.671875,101)" y="0" x="0" id="text-entity-users-33ae1e26-be31-5c1d-bf65-e859e9d0308e-attr-4-key" class="er entityLabel"></text><rect height="22" width="58.671875" y="112" x="0" class="er attributeBoxOdd"></rect><text style="dominant-baseline: middle; font-size: 10.2px;" transform="translate(5,123)" y="0" x="0" id="text-entity-users-33ae1e26-be31-5c1d-bf65-e859e9d0308e-attr-5-type" class="er entityLabel">int</text><rect height="22" width="78" y="112" x="58.671875" class="er attributeBoxOdd"></rect><text style="dominant-baseline: middle; font-size: 10.2px;" transform="translate(63.671875,123)" y="0" x="0" id="text-entity-users-33ae1e26-be31-5c1d-bf65-e859e9d0308e-attr-5-name" class="er entityLabel">current_score</text><rect height="22" width="22.4921875" y="112" x="136.671875" class="er attributeBoxOdd"></rect><text style="dominant-baseline: middle; font-size: 10.2px;" transform="translate(141.671875,123)" y="0" x="0" id="text-entity-users-33ae1e26-be31-5c1d-bf65-e859e9d0308e-attr-5-key" class="er entityLabel"></text><rect height="22" width="58.671875" y="134" x="0" class="er attributeBoxEven"></rect><text style="dominant-baseline: middle; font-size: 10.2px;" transform="translate(5,145)" y="0" x="0" id="text-entity-users-33ae1e26-be31-5c1d-bf65-e859e9d0308e-attr-6-type" class="er entityLabel">int</text><rect height="22" width="78" y="134" x="58.671875" class="er attributeBoxEven"></rect><text style="dominant-baseline: middle; font-size: 10.2px;" transform="translate(63.671875,145)" y="0" x="0" id="text-entity-users-33ae1e26-be31-5c1d-bf65-e859e9d0308e-attr-6-name" class="er entityLabel">total_actions</text><rect height="22" width="22.4921875" y="134" x="136.671875" class="er attributeBoxEven"></rect><text style="dominant-baseline: middle; font-size: 10.2px;" transform="translate(141.671875,145)" y="0" x="0" id="text-entity-users-33ae1e26-be31-5c1d-bf65-e859e9d0308e-attr-6-key" class="er entityLabel"></text><rect height="22" width="58.671875" y="156" x="0" class="er attributeBoxOdd"></rect><text style="dominant-baseline: middle; font-size: 10.2px;" transform="translate(5,167)" y="0" x="0" id="text-entity-users-33ae1e26-be31-5c1d-bf65-e859e9d0308e-attr-7-type" class="er entityLabel">timestamp</text><rect height="22" width="78" y="156" x="58.671875" class="er attributeBoxOdd"></rect><text style="dominant-baseline: middle; font-size: 10.2px;" transform="translate(63.671875,167)" y="0" x="0" id="text-entity-users-33ae1e26-be31-5c1d-bf65-e859e9d0308e-attr-7-name" class="er entityLabel">last_action_at</text><rect height="22" width="22.4921875" y="156" x="136.671875" class="er attributeBoxOdd"></rect><text style="dominant-baseline: middle; font-size: 10.2px;" transform="translate(141.671875,167)" y="0" x="0" id="text-entity-users-33ae1e26-be31-5c1d-bf65-e859e9d0308e-attr-7-key" class="er entityLabel"></text><rect height="22" width="58.671875" y="178" x="0" class="er attributeBoxEven"></rect><text style="dominant-baseline: middle; font-size: 10.2px;" transform="translate(5,189)" y="0" x="0" id="text-entity-users-33ae1e26-be31-5c1d-bf65-e859e9d0308e-attr-8-type" class="er entityLabel">timestamp</text><rect height="22" width="78" y="178" x="58.671875" class="er attributeBoxEven"></rect><text style="dominant-baseline: middle; font-size: 10.2px;" transform="translate(63.671875,189)" y="0" x="0" id="text-entity-users-33ae1e26-be31-5c1d-bf65-e859e9d0308e-attr-8-name" class="er entityLabel">created_at</text><rect height="22" width="22.4921875" y="178" x="136.671875" class="er attributeBoxEven"></rect><text style="dominant-baseline: middle; font-size: 10.2px;" transform="translate(141.671875,189)" y="0" x="0" id="text-entity-users-33ae1e26-be31-5c1d-bf65-e859e9d0308e-attr-8-key" class="er entityLabel"></text><rect height="22" width="58.671875" y="200" x="0" class="er attributeBoxOdd"></rect><text style="dominant-baseline: middle; font-size: 10.2px;" transform="translate(5,211)" y="0" x="0" id="text-entity-users-33ae1e26-be31-5c1d-bf65-e859e9d0308e-attr-9-type" class="er entityLabel">timestamp</text><rect height="22" width="78" y="200" x="58.671875" class="er attributeBoxOdd"></rect><text style="dominant-baseline: middle; font-size: 10.2px;" transform="translate(63.671875,211)" y="0" x="0" id="text-entity-users-33ae1e26-be31-5c1d-bf65-e859e9d0308e-attr-9-name" class="er entityLabel">updated_at</text><rect height="22" width="22.4921875" y="200" x="136.671875" class="er attributeBoxOdd"></rect><text style="dominant-baseline: middle; font-size: 10.2px;" transform="translate(141.671875,211)" y="0" x="0" id="text-entity-users-33ae1e26-be31-5c1d-bf65-e859e9d0308e-attr-9-key" class="er entityLabel"></text></g><g transform="translate(20,342 )" id="entity-scorehistory-f72c39f3-b5be-5c5a-bd8d-35459f5052b3"><rect height="244" width="167.875" y="0" x="0" class="er entityBox"></rect><text style="dominant-baseline: middle; text-anchor: middle; font-size: 12px;" transform="translate(83.9375,12)" y="0" x="0" id="text-entity-scorehistory-f72c39f3-b5be-5c5a-bd8d-35459f5052b3" class="er entityLabel">score_history</text><rect height="22" width="58.671875" y="24" x="0" class="er attributeBoxOdd"></rect><text style="dominant-baseline: middle; font-size: 10.2px;" transform="translate(5,35)" y="0" x="0" id="text-entity-scorehistory-f72c39f3-b5be-5c5a-bd8d-35459f5052b3-attr-1-type" class="er entityLabel">int</text><rect height="22" width="87.640625" y="24" x="58.671875" class="er attributeBoxOdd"></rect><text style="dominant-baseline: middle; font-size: 10.2px;" transform="translate(63.671875,35)" y="0" x="0" id="text-entity-scorehistory-f72c39f3-b5be-5c5a-bd8d-35459f5052b3-attr-1-name" class="er entityLabel">id</text><rect height="22" width="21.5625" y="24" x="146.3125" class="er attributeBoxOdd"></rect><text style="dominant-baseline: middle; font-size: 10.2px;" transform="translate(151.3125,35)" y="0" x="0" id="text-entity-scorehistory-f72c39f3-b5be-5c5a-bd8d-35459f5052b3-attr-1-key" class="er entityLabel">PK</text><rect height="22" width="58.671875" y="46" x="0" class="er attributeBoxEven"></rect><text style="dominant-baseline: middle; font-size: 10.2px;" transform="translate(5,57)" y="0" x="0" id="text-entity-scorehistory-f72c39f3-b5be-5c5a-bd8d-35459f5052b3-attr-2-type" class="er entityLabel">int</text><rect height="22" width="87.640625" y="46" x="58.671875" class="er attributeBoxEven"></rect><text style="dominant-baseline: middle; font-size: 10.2px;" transform="translate(63.671875,57)" y="0" x="0" id="text-entity-scorehistory-f72c39f3-b5be-5c5a-bd8d-35459f5052b3-attr-2-name" class="er entityLabel">user_id</text><rect height="22" width="21.5625" y="46" x="146.3125" class="er attributeBoxEven"></rect><text style="dominant-baseline: middle; font-size: 10.2px;" transform="translate(151.3125,57)" y="0" x="0" id="text-entity-scorehistory-f72c39f3-b5be-5c5a-bd8d-35459f5052b3-attr-2-key" class="er entityLabel">FK</text><rect height="22" width="58.671875" y="68" x="0" class="er attributeBoxOdd"></rect><text style="dominant-baseline: middle; font-size: 10.2px;" transform="translate(5,79)" y="0" x="0" id="text-entity-scorehistory-f72c39f3-b5be-5c5a-bd8d-35459f5052b3-attr-3-type" class="er entityLabel">varchar</text><rect height="22" width="87.640625" y="68" x="58.671875" class="er attributeBoxOdd"></rect><text style="dominant-baseline: middle; font-size: 10.2px;" transform="translate(63.671875,79)" y="0" x="0" id="text-entity-scorehistory-f72c39f3-b5be-5c5a-bd8d-35459f5052b3-attr-3-name" class="er entityLabel">action_type</text><rect height="22" width="21.5625" y="68" x="146.3125" class="er attributeBoxOdd"></rect><text style="dominant-baseline: middle; font-size: 10.2px;" transform="translate(151.3125,79)" y="0" x="0" id="text-entity-scorehistory-f72c39f3-b5be-5c5a-bd8d-35459f5052b3-attr-3-key" class="er entityLabel"></text><rect height="22" width="58.671875" y="90" x="0" class="er attributeBoxEven"></rect><text style="dominant-baseline: middle; font-size: 10.2px;" transform="translate(5,101)" y="0" x="0" id="text-entity-scorehistory-f72c39f3-b5be-5c5a-bd8d-35459f5052b3-attr-4-type" class="er entityLabel">int</text><rect height="22" width="87.640625" y="90" x="58.671875" class="er attributeBoxEven"></rect><text style="dominant-baseline: middle; font-size: 10.2px;" transform="translate(63.671875,101)" y="0" x="0" id="text-entity-scorehistory-f72c39f3-b5be-5c5a-bd8d-35459f5052b3-attr-4-name" class="er entityLabel">score_delta</text><rect height="22" width="21.5625" y="90" x="146.3125" class="er attributeBoxEven"></rect><text style="dominant-baseline: middle; font-size: 10.2px;" transform="translate(151.3125,101)" y="0" x="0" id="text-entity-scorehistory-f72c39f3-b5be-5c5a-bd8d-35459f5052b3-attr-4-key" class="er entityLabel"></text><rect height="22" width="58.671875" y="112" x="0" class="er attributeBoxOdd"></rect><text style="dominant-baseline: middle; font-size: 10.2px;" transform="translate(5,123)" y="0" x="0" id="text-entity-scorehistory-f72c39f3-b5be-5c5a-bd8d-35459f5052b3-attr-5-type" class="er entityLabel">int</text><rect height="22" width="87.640625" y="112" x="58.671875" class="er attributeBoxOdd"></rect><text style="dominant-baseline: middle; font-size: 10.2px;" transform="translate(63.671875,123)" y="0" x="0" id="text-entity-scorehistory-f72c39f3-b5be-5c5a-bd8d-35459f5052b3-attr-5-name" class="er entityLabel">previous_score</text><rect height="22" width="21.5625" y="112" x="146.3125" class="er attributeBoxOdd"></rect><text style="dominant-baseline: middle; font-size: 10.2px;" transform="translate(151.3125,123)" y="0" x="0" id="text-entity-scorehistory-f72c39f3-b5be-5c5a-bd8d-35459f5052b3-attr-5-key" class="er entityLabel"></text><rect height="22" width="58.671875" y="134" x="0" class="er attributeBoxEven"></rect><text style="dominant-baseline: middle; font-size: 10.2px;" transform="translate(5,145)" y="0" x="0" id="text-entity-scorehistory-f72c39f3-b5be-5c5a-bd8d-35459f5052b3-attr-6-type" class="er entityLabel">int</text><rect height="22" width="87.640625" y="134" x="58.671875" class="er attributeBoxEven"></rect><text style="dominant-baseline: middle; font-size: 10.2px;" transform="translate(63.671875,145)" y="0" x="0" id="text-entity-scorehistory-f72c39f3-b5be-5c5a-bd8d-35459f5052b3-attr-6-name" class="er entityLabel">new_score</text><rect height="22" width="21.5625" y="134" x="146.3125" class="er attributeBoxEven"></rect><text style="dominant-baseline: middle; font-size: 10.2px;" transform="translate(151.3125,145)" y="0" x="0" id="text-entity-scorehistory-f72c39f3-b5be-5c5a-bd8d-35459f5052b3-attr-6-key" class="er entityLabel"></text><rect height="22" width="58.671875" y="156" x="0" class="er attributeBoxOdd"></rect><text style="dominant-baseline: middle; font-size: 10.2px;" transform="translate(5,167)" y="0" x="0" id="text-entity-scorehistory-f72c39f3-b5be-5c5a-bd8d-35459f5052b3-attr-7-type" class="er entityLabel">jsonb</text><rect height="22" width="87.640625" y="156" x="58.671875" class="er attributeBoxOdd"></rect><text style="dominant-baseline: middle; font-size: 10.2px;" transform="translate(63.671875,167)" y="0" x="0" id="text-entity-scorehistory-f72c39f3-b5be-5c5a-bd8d-35459f5052b3-attr-7-name" class="er entityLabel">action_metadata</text><rect height="22" width="21.5625" y="156" x="146.3125" class="er attributeBoxOdd"></rect><text style="dominant-baseline: middle; font-size: 10.2px;" transform="translate(151.3125,167)" y="0" x="0" id="text-entity-scorehistory-f72c39f3-b5be-5c5a-bd8d-35459f5052b3-attr-7-key" class="er entityLabel"></text><rect height="22" width="58.671875" y="178" x="0" class="er attributeBoxEven"></rect><text style="dominant-baseline: middle; font-size: 10.2px;" transform="translate(5,189)" y="0" x="0" id="text-entity-scorehistory-f72c39f3-b5be-5c5a-bd8d-35459f5052b3-attr-8-type" class="er entityLabel">inet</text><rect height="22" width="87.640625" y="178" x="58.671875" class="er attributeBoxEven"></rect><text style="dominant-baseline: middle; font-size: 10.2px;" transform="translate(63.671875,189)" y="0" x="0" id="text-entity-scorehistory-f72c39f3-b5be-5c5a-bd8d-35459f5052b3-attr-8-name" class="er entityLabel">client_ip</text><rect height="22" width="21.5625" y="178" x="146.3125" class="er attributeBoxEven"></rect><text style="dominant-baseline: middle; font-size: 10.2px;" transform="translate(151.3125,189)" y="0" x="0" id="text-entity-scorehistory-f72c39f3-b5be-5c5a-bd8d-35459f5052b3-attr-8-key" class="er entityLabel"></text><rect height="22" width="58.671875" y="200" x="0" class="er attributeBoxOdd"></rect><text style="dominant-baseline: middle; font-size: 10.2px;" transform="translate(5,211)" y="0" x="0" id="text-entity-scorehistory-f72c39f3-b5be-5c5a-bd8d-35459f5052b3-attr-9-type" class="er entityLabel">text</text><rect height="22" width="87.640625" y="200" x="58.671875" class="er attributeBoxOdd"></rect><text style="dominant-baseline: middle; font-size: 10.2px;" transform="translate(63.671875,211)" y="0" x="0" id="text-entity-scorehistory-f72c39f3-b5be-5c5a-bd8d-35459f5052b3-attr-9-name" class="er entityLabel">user_agent</text><rect height="22" width="21.5625" y="200" x="146.3125" class="er attributeBoxOdd"></rect><text style="dominant-baseline: middle; font-size: 10.2px;" transform="translate(151.3125,211)" y="0" x="0" id="text-entity-scorehistory-f72c39f3-b5be-5c5a-bd8d-35459f5052b3-attr-9-key" class="er entityLabel"></text><rect height="22" width="58.671875" y="222" x="0" class="er attributeBoxEven"></rect><text style="dominant-baseline: middle; font-size: 10.2px;" transform="translate(5,233)" y="0" x="0" id="text-entity-scorehistory-f72c39f3-b5be-5c5a-bd8d-35459f5052b3-attr-10-type" class="er entityLabel">timestamp</text><rect height="22" width="87.640625" y="222" x="58.671875" class="er attributeBoxEven"></rect><text style="dominant-baseline: middle; font-size: 10.2px;" transform="translate(63.671875,233)" y="0" x="0" id="text-entity-scorehistory-f72c39f3-b5be-5c5a-bd8d-35459f5052b3-attr-10-name" class="er entityLabel">created_at</text><rect height="22" width="21.5625" y="222" x="146.3125" class="er attributeBoxEven"></rect><text style="dominant-baseline: middle; font-size: 10.2px;" transform="translate(151.3125,233)" y="0" x="0" id="text-entity-scorehistory-f72c39f3-b5be-5c5a-bd8d-35459f5052b3-attr-10-key" class="er entityLabel"></text></g><g transform="translate(287.875,375 )" id="entity-actiontokens-a68656a6-4fee-5dce-b43f-4f76fa91d175"><rect height="178" width="144.3125" y="0" x="0" class="er entityBox"></rect><text style="dominant-baseline: middle; text-anchor: middle; font-size: 12px;" transform="translate(72.15625,12)" y="0" x="0" id="text-entity-actiontokens-a68656a6-4fee-5dce-b43f-4f76fa91d175" class="er entityLabel">action_tokens</text><rect height="22" width="58.671875" y="24" x="0" class="er attributeBoxOdd"></rect><text style="dominant-baseline: middle; font-size: 10.2px;" transform="translate(5,35)" y="0" x="0" id="text-entity-actiontokens-a68656a6-4fee-5dce-b43f-4f76fa91d175-attr-1-type" class="er entityLabel">int</text><rect height="22" width="64.078125" y="24" x="58.671875" class="er attributeBoxOdd"></rect><text style="dominant-baseline: middle; font-size: 10.2px;" transform="translate(63.671875,35)" y="0" x="0" id="text-entity-actiontokens-a68656a6-4fee-5dce-b43f-4f76fa91d175-attr-1-name" class="er entityLabel">id</text><rect height="22" width="21.5625" y="24" x="122.75" class="er attributeBoxOdd"></rect><text style="dominant-baseline: middle; font-size: 10.2px;" transform="translate(127.75,35)" y="0" x="0" id="text-entity-actiontokens-a68656a6-4fee-5dce-b43f-4f76fa91d175-attr-1-key" class="er entityLabel">PK</text><rect height="22" width="58.671875" y="46" x="0" class="er attributeBoxEven"></rect><text style="dominant-baseline: middle; font-size: 10.2px;" transform="translate(5,57)" y="0" x="0" id="text-entity-actiontokens-a68656a6-4fee-5dce-b43f-4f76fa91d175-attr-2-type" class="er entityLabel">int</text><rect height="22" width="64.078125" y="46" x="58.671875" class="er attributeBoxEven"></rect><text style="dominant-baseline: middle; font-size: 10.2px;" transform="translate(63.671875,57)" y="0" x="0" id="text-entity-actiontokens-a68656a6-4fee-5dce-b43f-4f76fa91d175-attr-2-name" class="er entityLabel">user_id</text><rect height="22" width="21.5625" y="46" x="122.75" class="er attributeBoxEven"></rect><text style="dominant-baseline: middle; font-size: 10.2px;" transform="translate(127.75,57)" y="0" x="0" id="text-entity-actiontokens-a68656a6-4fee-5dce-b43f-4f76fa91d175-attr-2-key" class="er entityLabel">FK</text><rect height="22" width="58.671875" y="68" x="0" class="er attributeBoxOdd"></rect><text style="dominant-baseline: middle; font-size: 10.2px;" transform="translate(5,79)" y="0" x="0" id="text-entity-actiontokens-a68656a6-4fee-5dce-b43f-4f76fa91d175-attr-3-type" class="er entityLabel">varchar</text><rect height="22" width="64.078125" y="68" x="58.671875" class="er attributeBoxOdd"></rect><text style="dominant-baseline: middle; font-size: 10.2px;" transform="translate(63.671875,79)" y="0" x="0" id="text-entity-actiontokens-a68656a6-4fee-5dce-b43f-4f76fa91d175-attr-3-name" class="er entityLabel">token_hash</text><rect height="22" width="21.5625" y="68" x="122.75" class="er attributeBoxOdd"></rect><text style="dominant-baseline: middle; font-size: 10.2px;" transform="translate(127.75,79)" y="0" x="0" id="text-entity-actiontokens-a68656a6-4fee-5dce-b43f-4f76fa91d175-attr-3-key" class="er entityLabel"></text><rect height="22" width="58.671875" y="90" x="0" class="er attributeBoxEven"></rect><text style="dominant-baseline: middle; font-size: 10.2px;" transform="translate(5,101)" y="0" x="0" id="text-entity-actiontokens-a68656a6-4fee-5dce-b43f-4f76fa91d175-attr-4-type" class="er entityLabel">varchar</text><rect height="22" width="64.078125" y="90" x="58.671875" class="er attributeBoxEven"></rect><text style="dominant-baseline: middle; font-size: 10.2px;" transform="translate(63.671875,101)" y="0" x="0" id="text-entity-actiontokens-a68656a6-4fee-5dce-b43f-4f76fa91d175-attr-4-name" class="er entityLabel">action_type</text><rect height="22" width="21.5625" y="90" x="122.75" class="er attributeBoxEven"></rect><text style="dominant-baseline: middle; font-size: 10.2px;" transform="translate(127.75,101)" y="0" x="0" id="text-entity-actiontokens-a68656a6-4fee-5dce-b43f-4f76fa91d175-attr-4-key" class="er entityLabel"></text><rect height="22" width="58.671875" y="112" x="0" class="er attributeBoxOdd"></rect><text style="dominant-baseline: middle; font-size: 10.2px;" transform="translate(5,123)" y="0" x="0" id="text-entity-actiontokens-a68656a6-4fee-5dce-b43f-4f76fa91d175-attr-5-type" class="er entityLabel">timestamp</text><rect height="22" width="64.078125" y="112" x="58.671875" class="er attributeBoxOdd"></rect><text style="dominant-baseline: middle; font-size: 10.2px;" transform="translate(63.671875,123)" y="0" x="0" id="text-entity-actiontokens-a68656a6-4fee-5dce-b43f-4f76fa91d175-attr-5-name" class="er entityLabel">expires_at</text><rect height="22" width="21.5625" y="112" x="122.75" class="er attributeBoxOdd"></rect><text style="dominant-baseline: middle; font-size: 10.2px;" transform="translate(127.75,123)" y="0" x="0" id="text-entity-actiontokens-a68656a6-4fee-5dce-b43f-4f76fa91d175-attr-5-key" class="er entityLabel"></text><rect height="22" width="58.671875" y="134" x="0" class="er attributeBoxEven"></rect><text style="dominant-baseline: middle; font-size: 10.2px;" transform="translate(5,145)" y="0" x="0" id="text-entity-actiontokens-a68656a6-4fee-5dce-b43f-4f76fa91d175-attr-6-type" class="er entityLabel">timestamp</text><rect height="22" width="64.078125" y="134" x="58.671875" class="er attributeBoxEven"></rect><text style="dominant-baseline: middle; font-size: 10.2px;" transform="translate(63.671875,145)" y="0" x="0" id="text-entity-actiontokens-a68656a6-4fee-5dce-b43f-4f76fa91d175-attr-6-name" class="er entityLabel">used_at</text><rect height="22" width="21.5625" y="134" x="122.75" class="er attributeBoxEven"></rect><text style="dominant-baseline: middle; font-size: 10.2px;" transform="translate(127.75,145)" y="0" x="0" id="text-entity-actiontokens-a68656a6-4fee-5dce-b43f-4f76fa91d175-attr-6-key" class="er entityLabel"></text><rect height="22" width="58.671875" y="156" x="0" class="er attributeBoxOdd"></rect><text style="dominant-baseline: middle; font-size: 10.2px;" transform="translate(5,167)" y="0" x="0" id="text-entity-actiontokens-a68656a6-4fee-5dce-b43f-4f76fa91d175-attr-7-type" class="er entityLabel">timestamp</text><rect height="22" width="64.078125" y="156" x="58.671875" class="er attributeBoxOdd"></rect><text style="dominant-baseline: middle; font-size: 10.2px;" transform="translate(63.671875,167)" y="0" x="0" id="text-entity-actiontokens-a68656a6-4fee-5dce-b43f-4f76fa91d175-attr-7-name" class="er entityLabel">created_at</text><rect height="22" width="21.5625" y="156" x="122.75" class="er attributeBoxOdd"></rect><text style="dominant-baseline: middle; font-size: 10.2px;" transform="translate(127.75,167)" y="0" x="0" id="text-entity-actiontokens-a68656a6-4fee-5dce-b43f-4f76fa91d175-attr-7-key" class="er entityLabel"></text></g><rect height="14" width="17.71875" y="274.7073974609375" x="107.31739807128906" class="er relationshipLabelBox"></rect><text style="text-anchor: middle; dominant-baseline: middle; font-size: 12px;" y="281.7073974609375" x="116.17677307128906" id="rel5" class="er relationshipLabel">has</text><rect height="14" width="52.8046875" y="290.3327331542969" x="326.0945129394531" class="er relationshipLabelBox"></rect><text style="text-anchor: middle; dominant-baseline: middle; font-size: 12px;" y="297.3327331542969" x="352.4968566894531" id="rel6" class="er relationshipLabel">generates</text></svg>